<?xml version="1.0" encoding="utf-8"?>
<!-- Generator: Adobe Illustrator 16.0.0, SVG Export Plug-In . SVG Version: 6.00 Build 0)  -->
<!DOCTYPE svg PUBLIC "-//W3C//DTD SVG 1.1//EN" "http://www.w3.org/Graphics/SVG/1.1/DTD/svg11.dtd">
<svg version="1.1" id="Layer_1" xmlns="http://www.w3.org/2000/svg" xmlns:xlink="http://www.w3.org/1999/xlink" x="0px" y="0px"
     width="320px" height="200px" viewBox="240 0 320 200" enable-background="new 240 0 320 200" xml:space="preserve">
  <g>

    <linearGradient id="SVGID_1_" gradientUnits="userSpaceOnUse" x1="35.4878" y1="154.2637" x2="35.4878" y2="109.2637" gradientTransform="matrix(4.4444 0 0 -4.4444 242.2778 685.6111)">
      <stop  offset="0" style="stop-color:#DDDDDD"/>
      <stop  offset="1" style="stop-color:#FFFFFF"/>
    </linearGradient>
    <path fill="url(#SVGID_1_)" d="M560,180c0,11-9,20-20,20H260c-11,0-20-9-20-20V20c0-11,9-20,20-20h280c11,0,20,9,20,20V180z"/>
    <g>
      <path fill="#999999" d="M540,0.667c10.662,0,19.333,8.671,19.333,19.333v160c0,10.662-8.671,19.334-19.333,19.334H260
                              c-10.662,0-19.333-8.672-19.333-19.334V20c0-10.662,8.671-19.333,19.333-19.333H540 M540,0H260c-11,0-20,9-20,20v160
                              c0,11,9,20,20,20h280c11,0,20-9,20-20V20C560,9,551,0,540,0L540,0z"/>
    </g>
    <path fill="#FF9900" d="M432.869,129.361c-15.404,11.354-37.732,17.412-56.956,17.412c-26.955,0-51.221-9.971-69.579-26.551
                            c-1.442-1.305-0.15-3.082,1.581-2.066c19.812,11.527,44.31,18.463,69.614,18.463c17.066,0,35.84-3.531,53.102-10.857
                            C433.237,124.654,435.42,127.469,432.869,129.361 M439.272,122.035c-1.961-2.516-13.015-1.189-17.977-0.6
                            c-1.512,0.184-1.742-1.131-0.381-2.078c8.804-6.196,23.25-4.408,24.937-2.332c1.684,2.088-0.439,16.57-8.714,23.482
                            c-1.27,1.061-2.479,0.496-1.914-0.912C437.08,134.957,441.246,124.562,439.272,122.035"/>
    <path fill="#221F1F" d="M421.642,75.613v-6.023c0-0.911,0.692-1.522,1.524-1.522h26.965c0.866,0,1.559,0.622,1.559,1.522v5.159
                            c-0.012,0.865-0.739,1.996-2.031,3.784l-13.975,19.952c5.194-0.128,10.674,0.646,15.382,3.299c1.062,0.602,1.352,1.478,1.433,2.343
                            v6.427c0,0.877-0.972,1.904-1.987,1.373c-8.295-4.35-19.314-4.822-28.489,0.047c-0.934,0.508-1.915-0.508-1.915-1.385v-6.104
                            c0-0.98,0.012-2.653,0.992-4.143l16.19-23.215H423.2C422.334,77.125,421.641,76.513,421.642,75.613 M323.272,113.195h-8.204
                            c-0.785-0.058-1.407-0.646-1.465-1.396V69.694c0-0.843,0.703-1.512,1.581-1.512h7.65c0.796,0.035,1.431,0.647,1.489,1.407v5.504
                            h0.149c1.997-5.32,5.747-7.8,10.801-7.8c5.135,0,8.343,2.48,10.65,7.8c1.985-5.32,6.497-7.8,11.332-7.8
                            c3.438,0,7.2,1.419,9.496,4.604c2.597,3.542,2.065,8.689,2.065,13.201l-0.011,26.575c0,0.841-0.704,1.522-1.581,1.522h-8.193
                            c-0.819-0.058-1.477-0.715-1.477-1.522V89.356c0-1.777,0.161-6.208-0.23-7.893c-0.612-2.827-2.447-3.624-4.823-3.624
                            c-1.985,0-4.062,1.327-4.904,3.45c-0.842,2.124-0.761,5.677-0.761,8.066v22.317c0,0.841-0.705,1.522-1.581,1.522h-8.192
                            c-0.831-0.058-1.477-0.715-1.477-1.522l-0.012-22.317c0-4.697,0.773-11.608-5.054-11.608c-5.896,0-5.666,6.739-5.666,11.608v22.317
                            C324.854,112.514,324.15,113.195,323.272,113.195 M474.904,67.294c12.175,0,18.764,10.454,18.764,23.747
                            c0,12.843-7.281,23.031-18.764,23.031c-11.953,0-18.462-10.454-18.462-23.481C456.442,77.483,463.031,67.294,474.904,67.294
                            M474.975,75.89c-6.047,0-6.428,8.239-6.428,13.375c0,5.145-0.081,16.13,6.357,16.13c6.358,0,6.659-8.862,6.659-14.262
                            c0-3.554-0.15-7.8-1.225-11.17C479.417,77.033,477.582,75.89,474.975,75.89 M509.451,113.195h-8.168
                            c-0.819-0.058-1.479-0.715-1.479-1.522l-0.01-42.117c0.068-0.774,0.75-1.374,1.579-1.374h7.605c0.715,0.035,1.305,0.52,1.467,1.177
                            v6.438h0.148c2.297-5.757,5.516-8.503,11.181-8.503c3.682,0,7.271,1.327,9.578,4.962c2.146,3.37,2.146,9.034,2.146,13.109v26.504
                            c-0.093,0.738-0.774,1.326-1.582,1.326h-8.226c-0.75-0.058-1.374-0.611-1.456-1.326V88.999c0-4.604,0.532-11.343-5.134-11.343
                            c-1.996,0-3.832,1.338-4.742,3.37c-1.154,2.573-1.305,5.134-1.305,7.973v22.674C511.043,112.514,510.328,113.195,509.451,113.195
                            M414.753,105.477c-1.499-2.078-3.092-3.762-3.092-7.604V85.087c0-5.413,0.381-10.386-3.611-14.113
                            c-3.151-3.022-8.366-4.084-12.359-4.084c-7.8,0-16.524,2.908-18.347,12.555c-0.196,1.026,0.554,1.57,1.223,1.719l7.951,0.854
                            c0.75-0.033,1.292-0.761,1.431-1.5c0.681-3.323,3.461-4.927,6.588-4.927c1.696,0,3.612,0.623,4.604,2.134
                            c1.155,1.685,1.003,3.993,1.003,5.943v1.061c-4.754,0.543-10.973,0.89-15.427,2.851c-5.146,2.216-8.746,6.751-8.746,13.408
                            c0,8.527,5.365,12.785,12.277,12.785c5.827,0,9.023-1.373,13.523-5.965c1.489,2.158,1.985,3.208,4.708,5.469
                            c0.611,0.324,1.396,0.289,1.939-0.195l0.012,0.023c1.638-1.455,4.614-4.051,6.288-5.447
                            C415.388,107.104,415.273,106.214,414.753,105.477z M398.61,101.783c-1.304,2.308-3.38,3.728-5.677,3.728
                            c-3.15,0-4.997-2.401-4.997-5.943c0-6.993,6.266-8.262,12.208-8.262v1.777C400.145,96.28,400.226,98.945,398.61,101.783z
                            M307.199,105.477c-1.5-2.078-3.093-3.762-3.093-7.604V85.087c0-5.413,0.382-10.386-3.611-14.113
                            c-3.15-3.022-8.366-4.084-12.358-4.084c-7.8,0-16.511,2.908-18.346,12.555c-0.186,1.026,0.553,1.57,1.222,1.719l7.962,0.854
                            c0.739-0.033,1.281-0.761,1.419-1.5c0.681-3.323,3.473-4.927,6.601-4.927c1.685,0,3.6,0.623,4.604,2.134
                            c1.142,1.685,0.992,3.993,0.992,5.943v1.061c-4.754,0.543-10.974,0.89-15.427,2.851c-5.135,2.216-8.747,6.751-8.747,13.408
                            c0,8.527,5.376,12.785,12.277,12.785c5.839,0,9.023-1.373,13.524-5.965c1.5,2.158,1.985,3.208,4.708,5.469
                            c0.611,0.324,1.396,0.289,1.938-0.195l0.023,0.023c1.638-1.455,4.616-4.051,6.289-5.447
                            C307.845,107.104,307.73,106.214,307.199,105.477z M291.057,101.783c-1.304,2.308-3.37,3.728-5.677,3.728
                            c-3.15,0-4.985-2.401-4.985-5.943c0-6.993,6.265-8.262,12.196-8.262v1.777C292.591,96.28,292.671,98.945,291.057,101.783z"/>
  </g>
</svg>
